<svg xmlns="http://www.w3.org/2000/svg" xmlns:xlink="http://www.w3.org/1999/xlink" viewBox="0 0 247.76 85.33">
  <defs>
    <style>
      .cls-1 {
        fill: #1d1d1b;
      }

      .cls-2 {
        fill: url(#Безымянный_градиент_40);
      }

      .cls-3 {
        fill: url(#Безымянный_градиент_40-2);
      }

      .cls-4 {
        fill: url(#Безымянный_градиент_40-3);
      }

      .cls-5 {
        fill: url(#Безымянный_градиент_40-4);
      }
    </style>
    <linearGradient id="Безымянный_градиент_40" data-name="Безымянный градиент 40" y1="11.38" x2="80.8" y2="11.38" gradientUnits="userSpaceOnUse">
      <stop offset="0" stop-color="#be1622"/>
      <stop offset="1" stop-color="#1d1d1b"/>
    </linearGradient>
    <linearGradient id="Безымянный_градиент_40-2" y1="53.06" x2="80.8" y2="53.06" xlink:href="#Безымянный_градиент_40"/>
    <linearGradient id="Безымянный_градиент_40-3" y1="73.95" x2="80.8" y2="73.95" xlink:href="#Безымянный_градиент_40"/>
    <linearGradient id="Безымянный_градиент_40-4" y1="32.18" x2="80.8" y2="32.18" xlink:href="#Безымянный_градиент_40"/>
  </defs>
  <g id="Слой_2" data-name="Слой 2">
    <g id="Слой_1-2" data-name="Слой 1">
      <g>
        <path class="cls-1" d="M114.78,9.57v6H100.45V21.2a33.15,33.15,0,0,1,4-.25,15.7,15.7,0,0,1,9.2,2.67,9.16,9.16,0,0,1,3.78,7.84,9.69,9.69,0,0,1-3.1,7.36c-3.15,2.76-8.28,3.73-13.27,3.73a56,56,0,0,1-7.89-.48V9.57ZM100.45,36.84a17.25,17.25,0,0,0,2.81.19,7.35,7.35,0,0,0,4.79-1.65,5.15,5.15,0,0,0,1.6-3.82,4.44,4.44,0,0,0-1.74-3.68A8.09,8.09,0,0,0,103,26.43a22.89,22.89,0,0,0-2.57.19Z"/>
        <path class="cls-1" d="M129.64,9.57V22.31h3.92C134.87,14.42,140.19,9,147.84,9c9.2,0,14.24,7.51,14.24,16.56,0,10.75-6,17.2-14.72,17.2-8.09,0-13.17-6-14-14.24h-3.73v13.7h-7.36V9.57Zm25,16.23c0-5.91-2.42-11-7-11s-7.07,5-7.07,11.13,2.57,11,7.07,11S154.62,32.14,154.62,25.8Z"/>
        <path class="cls-1" d="M166.86,10a60,60,0,0,1,10-.68c4.55,0,7.8.88,10,2.62a9.39,9.39,0,0,1,3.48,7.55,10.15,10.15,0,0,1-3,7.75c-2.52,2.32-6.25,3.44-10.61,3.44a12.2,12.2,0,0,1-2.51-.2V42.21h-7.31Zm7.31,14.82a11.34,11.34,0,0,0,2.47.19c3.92,0,6.34-2,6.34-5.28,0-3-2.08-4.79-5.81-4.79a13.5,13.5,0,0,0-3,.24Z"/>
        <path class="cls-1" d="M224.71,25.55c0,10.75-6.44,17.2-16,17.2s-15.35-7.32-15.35-16.66c0-9.78,6.3-17.1,15.88-17.1C219.24,9,224.71,16.5,224.71,25.55Zm-23.58.39c0,6.44,3,11,7.94,11s7.84-4.75,7.84-11.09c0-5.91-2.76-11-7.84-11S201.13,19.6,201.13,25.94Z"/>
        <path class="cls-1" d="M111.33,74.71c-.17-3.13-.37-6.89-.33-9.68h-.1c-.77,2.63-1.7,5.42-2.83,8.52l-4,10.88h-2.2L98.28,73.75c-1.06-3.16-2-6.06-2.6-8.72h-.06c-.07,2.79-.23,6.55-.44,9.92l-.59,9.61H91.83l1.56-22.43h3.69L100.91,73c.93,2.76,1.7,5.23,2.26,7.56h.1c.57-2.27,1.37-4.73,2.37-7.56l4-10.85h3.69l1.4,22.43h-2.83Z"/>
        <path class="cls-1" d="M130.79,74.05h-8.72v8.08h9.72v2.43H119.18V62.13h12.11v2.43h-9.22v7.09h8.72Z"/>
        <path class="cls-1" d="M140,64.59h-6.82V62.13h16.61v2.46h-6.85v20H140Z"/>
        <path class="cls-1" d="M153.19,77.51l-2.33,7h-3l7.62-22.43H159l7.65,22.43h-3.09l-2.4-7Zm7.35-2.26-2.19-6.46c-.5-1.47-.84-2.8-1.17-4.09h-.06c-.34,1.33-.7,2.69-1.14,4.06l-2.19,6.49Z"/>
        <path class="cls-1" d="M185.8,62.13V84.56h-2.93v-20h-7.42v6.79c0,4.86-.2,10.29-3.36,12.42a6.76,6.76,0,0,1-3.43,1.06l-.37-2.33a5.17,5.17,0,0,0,2.37-1.2c1.79-1.76,2-6.12,2-9.72V62.13Z"/>
        <path class="cls-1" d="M205.67,62.13V84.56h-2.93v-20h-7.42v6.79c0,4.86-.2,10.29-3.36,12.42a6.79,6.79,0,0,1-3.43,1.06l-.37-2.33a5.13,5.13,0,0,0,2.36-1.2c1.8-1.76,2-6.12,2-9.72V62.13Z"/>
        <path class="cls-1" d="M229.86,73.12c0,7.72-4.69,11.81-10.42,11.81-5.92,0-10.08-4.59-10.08-11.38,0-7.12,4.42-11.78,10.42-11.78S229.86,66.46,229.86,73.12Zm-17.41.36c0,4.79,2.6,9.09,7.16,9.09s7.19-4.23,7.19-9.32c0-4.46-2.33-9.12-7.16-9.12S212.45,68.56,212.45,73.48Z"/>
        <path class="cls-1" d="M233.62,62.43a28.6,28.6,0,0,1,5.29-.46c2.9,0,4.76.49,6.16,1.63a4.7,4.7,0,0,1,1.86,4,5.31,5.31,0,0,1-3.8,4.92v.07a5.78,5.78,0,0,1,4.63,5.62,6,6,0,0,1-1.9,4.5c-1.56,1.43-4.09,2.09-7.75,2.09a34.49,34.49,0,0,1-4.49-.26Zm2.89,9.19h2.63c3.06,0,4.86-1.6,4.86-3.76,0-2.63-2-3.66-4.92-3.66a12.45,12.45,0,0,0-2.57.2Zm0,10.75a15.58,15.58,0,0,0,2.43.13c3,0,5.76-1.1,5.76-4.36,0-3.06-2.63-4.33-5.79-4.33h-2.4Z"/>
      </g>
      <g>
        <polygon class="cls-2" points="18.09 9.3 0 0 0 13.43 18.09 22.76 80.8 22.76 80.8 9.3 18.09 9.3"/>
        <polygon class="cls-3" points="18.09 50.99 0 41.68 0 55.12 18.09 64.44 18.09 64.37 80.8 64.37 80.8 50.91 18.09 50.91 18.09 50.99"/>
        <polygon class="cls-4" points="18.09 71.87 0 62.57 0 76 18.09 85.33 18.09 85.17 80.8 85.17 80.8 71.71 18.09 71.71 18.09 71.87"/>
        <polygon class="cls-5" points="0 20.8 0 34.24 18.09 43.56 80.8 43.56 80.8 30.11 18.09 30.11 0 20.8"/>
      </g>
    </g>
  </g>
</svg>
